<svg xmlns="http://www.w3.org/2000/svg" xmlns:xlink="http://www.w3.org/1999/xlink" contentStyleType="text/css" data-diagram-type="DESCRIPTION" height="920px" preserveAspectRatio="none" style="width:1652px;height:920px;background:#FDFDFD;" version="1.1" viewBox="0 0 1652 920" width="1652px" zoomAndPan="magnify"><defs><filter height="300%" id="fxcrqb7dastr9" width="300%" x="-1" y="-1"><feGaussianBlur result="blurOut" stdDeviation="2"/><feColorMatrix in="blurOut" result="blurOut2" type="matrix" values="0 0 0 0 0 0 0 0 0 0 0 0 0 0 0 0 0 0 .4 0"/><feOffset dx="4" dy="4" in="blurOut2" result="blurOut3"/><feBlend in="SourceGraphic" in2="blurOut3" mode="normal"/></filter></defs><g><rect fill="#FDFDFD" height="920" style="stroke:none;stroke-width:1;" width="1652" x="0" y="0"/><!--cluster ? Web Layer--><g class="cluster" data-entity="&#127760; Web Layer" data-source-line="13" data-uid="ent0003" id="cluster_&#127760; Web Layer"><path d="M314.5,147.8 L412.502,147.8 A3.75,3.75 0 0 1 415.002,150.3 L422.002,170.0969 L497.5,170.0969 A2.5,2.5 0 0 1 500,172.5969 L500,232.6 A2.5,2.5 0 0 1 497.5,235.1 L314.5,235.1 A2.5,2.5 0 0 1 312,232.6 L312,150.3 A2.5,2.5 0 0 1 314.5,147.8" fill="#F0F8FF" filter="url(#fxcrqb7dastr9)" style="stroke:#808080;stroke-width:1.5;"/><line style="stroke:#808080;stroke-width:1.5;" x1="312" x2="422.002" y1="170.0969" y2="170.0969"/><text fill="#000000" font-family="sans-serif" font-size="14" font-weight="bold" lengthAdjust="spacing" textLength="97.002" x="316" y="162.7951">&#127760; Web Layer</text></g><!--cluster ? Campaign Manager--><g class="cluster" data-entity="&#127919; Campaign Manager" data-source-line="17" data-uid="ent0005" id="cluster_&#127919; Campaign Manager"><path d="M8.5,284.1 L175.4287,284.1 A3.75,3.75 0 0 1 177.9287,286.6 L184.9287,306.3969 L871.5,306.3969 A2.5,2.5 0 0 1 874,308.8969 L874,908.08 A2.5,2.5 0 0 1 871.5,910.58 L8.5,910.58 A2.5,2.5 0 0 1 6,908.08 L6,286.6 A2.5,2.5 0 0 1 8.5,284.1" fill="#FAEBD7" filter="url(#fxcrqb7dastr9)" style="stroke:#808080;stroke-width:1.5;"/><line style="stroke:#808080;stroke-width:1.5;" x1="6" x2="184.9287" y1="306.3969" y2="306.3969"/><text fill="#000000" font-family="sans-serif" font-size="14" font-weight="bold" lengthAdjust="spacing" textLength="165.9287" x="10" y="299.0951">&#127919; Campaign Manager</text></g><!--cluster ? Notification Channels--><g class="cluster" data-entity="&#128225; Notification Channels" data-source-line="30" data-uid="ent0016" id="cluster_&#128225; Notification Channels"><path d="M1229.5,818.78 L1413.4365,818.78 A3.75,3.75 0 0 1 1415.9365,821.28 L1422.9365,841.0769 L1640.5,841.0769 A2.5,2.5 0 0 1 1643,843.5769 L1643,903.58 A2.5,2.5 0 0 1 1640.5,906.08 L1229.5,906.08 A2.5,2.5 0 0 1 1227,903.58 L1227,821.28 A2.5,2.5 0 0 1 1229.5,818.78" fill="#D3D3D3" filter="url(#fxcrqb7dastr9)" style="stroke:#808080;stroke-width:1.5;"/><line style="stroke:#808080;stroke-width:1.5;" x1="1227" x2="1422.9365" y1="841.0769" y2="841.0769"/><text fill="#000000" font-family="sans-serif" font-size="14" font-weight="bold" lengthAdjust="spacing" textLength="182.9365" x="1231" y="833.7751">&#128225; Notification Channels</text></g><!--entity UWebAdmin--><g class="entity" data-entity="UWebAdmin" data-source-line="14" data-uid="ent0004" id="entity_UWebAdmin"><rect fill="#FFFFFF" filter="url(#fxcrqb7dastr9)" height="36.2969" rx="2.5" ry="2.5" style="stroke:#000000;stroke-width:0.5;" width="156.8486" x="327.58" y="182.8"/><text fill="#000000" font-family="sans-serif" font-size="14" lengthAdjust="spacing" textLength="136.8486" x="337.58" y="205.7951">Web Admin Service</text></g><!--entity API--><g class="entity" data-entity="API" data-source-line="18" data-uid="ent0006" id="entity_API"><rect fill="#FFFFFF" filter="url(#fxcrqb7dastr9)" height="36.2969" rx="2.5" ry="2.5" style="stroke:#000000;stroke-width:0.5;" width="117.7061" x="347.15" y="319.1"/><text fill="#000000" font-family="sans-serif" font-size="14" lengthAdjust="spacing" textLength="97.7061" x="357.15" y="342.0951">Campaign API</text></g><!--entity Workflow--><g class="entity" data-entity="Workflow" data-source-line="19" data-uid="ent0007" id="entity_Workflow"><rect fill="#FFFFFF" filter="url(#fxcrqb7dastr9)" height="36.2969" rx="2.5" ry="2.5" style="stroke:#000000;stroke-width:0.5;" width="141.2969" x="202.35" y="447.39"/><text fill="#000000" font-family="sans-serif" font-size="14" lengthAdjust="spacing" textLength="121.2969" x="212.35" y="470.3851">Workflow Service</text></g><!--entity Temporal--><g class="entity" data-entity="Temporal" data-source-line="20" data-uid="ent0008" id="entity_Temporal"><rect fill="#FFFFFF" filter="url(#fxcrqb7dastr9)" height="36.2969" rx="2.5" ry="2.5" style="stroke:#000000;stroke-width:0.5;" width="138.9111" x="171.54" y="575.69"/><text fill="#000000" font-family="sans-serif" font-size="14" lengthAdjust="spacing" textLength="118.9111" x="181.54" y="598.6851">Temporal Engine</text></g><!--entity Settings--><g class="entity" data-entity="Settings" data-source-line="21" data-uid="ent0009" id="entity_Settings"><rect fill="#FFFFFF" filter="url(#fxcrqb7dastr9)" height="36.2969" rx="2.5" ry="2.5" style="stroke:#000000;stroke-width:0.5;" width="133.6133" x="103.19" y="703.99"/><text fill="#000000" font-family="sans-serif" font-size="14" lengthAdjust="spacing" textLength="113.6133" x="113.19" y="726.9851">Settings Service</text></g><!--entity Delivery--><g class="entity" data-entity="Delivery" data-source-line="22" data-uid="ent0010" id="entity_Delivery"><rect fill="#FFFFFF" filter="url(#fxcrqb7dastr9)" height="36.2969" rx="2.5" ry="2.5" style="stroke:#000000;stroke-width:0.5;" width="134.3037" x="723.85" y="703.99"/><text fill="#000000" font-family="sans-serif" font-size="14" lengthAdjust="spacing" textLength="114.3037" x="733.85" y="726.9851">Delivery Service</text></g><!--entity Analytics--><g class="entity" data-entity="Analytics" data-source-line="23" data-uid="ent0011" id="entity_Analytics"><rect fill="#FFFFFF" filter="url(#fxcrqb7dastr9)" height="36.2969" rx="2.5" ry="2.5" style="stroke:#000000;stroke-width:0.5;" width="139.7656" x="272.12" y="703.99"/><text fill="#000000" font-family="sans-serif" font-size="14" lengthAdjust="spacing" textLength="119.7656" x="282.12" y="726.9851">Analytics Service</text></g><!--entity CollectorService--><g class="entity" data-entity="CollectorService" data-source-line="24" data-uid="ent0012" id="entity_CollectorService"><rect fill="#FFFFFF" filter="url(#fxcrqb7dastr9)" height="36.2969" rx="2.5" ry="2.5" style="stroke:#000000;stroke-width:0.5;" width="144.8037" x="543.6" y="703.99"/><text fill="#000000" font-family="sans-serif" font-size="14" lengthAdjust="spacing" textLength="124.8037" x="553.6" y="726.9851">Delivery Collector</text></g><!--entity DeliveryStore--><g class="entity" data-entity="DeliveryStore" data-source-line="25" data-uid="ent0013" id="entity_DeliveryStore"><path d="M424.35,859.28 C424.35,849.28 501.0004,849.28 501.0004,849.28 C501.0004,849.28 577.6508,849.28 577.6508,859.28 L577.6508,884.5769 C577.6508,894.5769 501.0004,894.5769 501.0004,894.5769 C501.0004,894.5769 424.35,894.5769 424.35,884.5769 L424.35,859.28" fill="#FFF8DC" filter="url(#fxcrqb7dastr9)" style="stroke:#000000;stroke-width:0.5;"/><path d="M424.35,859.28 C424.35,869.28 501.0004,869.28 501.0004,869.28 C501.0004,869.28 577.6508,869.28 577.6508,859.28" fill="none" style="stroke:#000000;stroke-width:0.5;"/><text fill="#000000" font-family="sans-serif" font-size="14" lengthAdjust="spacing" textLength="133.3008" x="434.35" y="886.2751">Delivery DataStore</text></g><!--entity SegmentSource--><g class="entity" data-entity="SegmentSource" data-source-line="26" data-uid="ent0014" id="entity_SegmentSource"><rect fill="#FFFFFF" filter="url(#fxcrqb7dastr9)" height="36.2969" rx="2.5" ry="2.5" style="stroke:#000000;stroke-width:0.5;" width="169.2695" x="220.37" y="853.78"/><text fill="#000000" font-family="sans-serif" font-size="14" lengthAdjust="spacing" textLength="149.2695" x="230.37" y="876.7751">Segment DataSource</text></g><!--entity SettingsSource--><g class="entity" data-entity="SettingsSource" data-source-line="27" data-uid="ent0015" id="entity_SettingsSource"><rect fill="#FFFFFF" filter="url(#fxcrqb7dastr9)" height="36.2969" rx="2.5" ry="2.5" style="stroke:#000000;stroke-width:0.5;" width="163.6914" x="22.15" y="853.78"/><text fill="#000000" font-family="sans-serif" font-size="14" lengthAdjust="spacing" textLength="143.6914" x="32.15" y="876.7751">Settings DataSource</text></g><!--entity Firebase--><g class="entity" data-entity="Firebase" data-source-line="31" data-uid="ent0017" id="entity_Firebase"><rect fill="#FFFFFF" filter="url(#fxcrqb7dastr9)" height="36.2969" rx="2.5" ry="2.5" style="stroke:#000000;stroke-width:0.5;" width="79.6846" x="1243.16" y="853.78"/><text fill="#000000" font-family="sans-serif" font-size="14" lengthAdjust="spacing" textLength="59.6846" x="1253.16" y="876.7751">Firebase</text></g><!--entity Email Provider--><g class="entity" data-entity="Email Provider" data-source-line="32" data-uid="ent0018" id="entity_Email Provider"><rect fill="#FFFFFF" filter="url(#fxcrqb7dastr9)" height="36.2969" rx="2.5" ry="2.5" style="stroke:#000000;stroke-width:0.5;" width="121.4863" x="1358.26" y="853.78"/><text fill="#000000" font-family="sans-serif" font-size="14" lengthAdjust="spacing" textLength="101.4863" x="1368.26" y="876.7751">Email Provider</text></g><!--entity SMS Provider--><g class="entity" data-entity="SMS Provider" data-source-line="33" data-uid="ent0019" id="entity_SMS Provider"><rect fill="#FFFFFF" filter="url(#fxcrqb7dastr9)" height="36.2969" rx="2.5" ry="2.5" style="stroke:#000000;stroke-width:0.5;" width="112.4971" x="1514.75" y="853.78"/><text fill="#000000" font-family="sans-serif" font-size="14" lengthAdjust="spacing" textLength="92.4971" x="1524.75" y="876.7751">SMS Provider</text></g><!--entity Admin--><g class="entity" data-entity="Admin" data-source-line="11" data-uid="ent0002" id="entity_Admin"><ellipse cx="406.0021" cy="14" fill="#ADD8E6" filter="url(#fxcrqb7dastr9)" rx="8" ry="8" style="stroke:#181818;stroke-width:0.5;"/><path d="M406.0021,22 L406.0021,49 M393.0021,30 L419.0021,30 M406.0021,49 L393.0021,64 M406.0021,49 L419.0021,64" fill="none" filter="url(#fxcrqb7dastr9)" style="stroke:#181818;stroke-width:0.5;"/><text fill="#000000" font-family="sans-serif" font-size="14" lengthAdjust="spacing" textLength="44.8643" x="383.57" y="81.4951">Admin</text></g><!--entity Email_Provider--><g class="entity" data-entity="Email_Provider" data-source-line="52" data-uid="ent0031" id="entity_Email_Provider"><ellipse cx="953.9981" cy="840.78" fill="#F1F1F1" filter="url(#fxcrqb7dastr9)" rx="8" ry="8" style="stroke:#181818;stroke-width:0.5;"/><path d="M953.9981,848.78 L953.9981,875.78 M940.9981,856.78 L966.9981,856.78 M953.9981,875.78 L940.9981,890.78 M953.9981,875.78 L966.9981,890.78" fill="none" filter="url(#fxcrqb7dastr9)" style="stroke:#181818;stroke-width:0.5;"/><text fill="#000000" font-family="sans-serif" font-size="14" lengthAdjust="spacing" textLength="104.0361" x="901.98" y="908.2751">Email_Provider</text></g><!--entity SMS_Provider--><g class="entity" data-entity="SMS_Provider" data-source-line="53" data-uid="ent0033" id="entity_SMS_Provider"><ellipse cx="1113.0034" cy="840.78" fill="#F1F1F1" filter="url(#fxcrqb7dastr9)" rx="8" ry="8" style="stroke:#181818;stroke-width:0.5;"/><path d="M1113.0034,848.78 L1113.0034,875.78 M1100.0034,856.78 L1126.0034,856.78 M1113.0034,875.78 L1100.0034,890.78 M1113.0034,875.78 L1126.0034,890.78" fill="none" filter="url(#fxcrqb7dastr9)" style="stroke:#181818;stroke-width:0.5;"/><text fill="#000000" font-family="sans-serif" font-size="14" lengthAdjust="spacing" textLength="95.0469" x="1065.48" y="908.2751">SMS_Provider</text></g><!--link Admin to UWebAdmin--><g class="link" data-entity-1="Admin" data-entity-2="UWebAdmin" data-source-line="36" data-uid="lnk20" id="link_Admin_UWebAdmin"><path d="M406,84.96 C406,116.28 406,152.89 406,176.45" fill="none" id="Admin-to-UWebAdmin" style="stroke:#181818;stroke-width:1;"/><polygon fill="#181818" points="406,182.45,410,173.45,406,177.45,402,173.45,406,182.45" style="stroke:#181818;stroke-width:1;"/><text fill="#000000" font-family="sans-serif" font-size="13" lengthAdjust="spacing" textLength="169.6602" x="407" y="127.8669">Create/Manage Campaign</text></g><!--link UWebAdmin to API--><g class="link" data-entity-1="UWebAdmin" data-entity-2="API" data-source-line="37" data-uid="lnk21" id="link_UWebAdmin_API"><path d="M406,219.5 C406,245.24 406,286.94 406,312.68" fill="none" id="UWebAdmin-to-API" style="stroke:#181818;stroke-width:1;"/><polygon fill="#181818" points="406,318.68,410,309.68,406,313.68,402,309.68,406,318.68" style="stroke:#181818;stroke-width:1;"/><text fill="#000000" font-family="sans-serif" font-size="13" lengthAdjust="spacing" textLength="172.7769" x="407" y="264.1669">campaignCreationRequest</text></g><!--link API to Settings--><g class="link" data-entity-1="API" data-entity-2="Settings" data-source-line="39" data-uid="lnk22" id="link_API_Settings"><path d="M462.37,355.83 C475.97,362.83 488.9,372.41 497,385.39 C564.94,494.22 588.09,577.98 503,673.99 C466.18,715.53 309.81,695.16 255,703.99 C249.2,704.92 249.102,704.8898 243.092,705.9898" fill="none" id="API-to-Settings" style="stroke:#181818;stroke-width:1;"/><polygon fill="#181818" points="237.19,707.07,246.7631,709.3843,242.1083,706.1698,245.3228,701.515,237.19,707.07" style="stroke:#181818;stroke-width:1;"/><text fill="#000000" font-family="sans-serif" font-size="13" lengthAdjust="spacing" textLength="121.0308" x="559" y="534.2569">Fetch test settings</text></g><!--link API to Workflow--><g class="link" data-entity-1="API" data-entity-2="Workflow" data-source-line="40" data-uid="lnk23" id="link_API_Workflow"><path d="M387.51,355.81 C362.1,379.93 321.0103,418.9479 295.6903,442.9979" fill="none" id="API-to-Workflow" style="stroke:#181818;stroke-width:1;"/><polygon fill="#181818" points="291.34,447.13,300.6203,443.832,294.9653,443.6866,295.1108,438.0316,291.34,447.13" style="stroke:#181818;stroke-width:1;"/><text fill="#000000" font-family="sans-serif" font-size="13" lengthAdjust="spacing" textLength="131.7012" x="357" y="398.4569">Start campaign with</text><text fill="#000000" font-family="sans-serif" font-size="13" lengthAdjust="spacing" textLength="101.6958" x="372.0027" y="413.5897">campaignRunId</text></g><!--link Workflow to Temporal--><g class="link" data-entity-1="Workflow" data-entity-2="Temporal" data-source-line="42" data-uid="lnk24" id="link_Workflow_Temporal"><path d="M256.01,483.78 C248.99,492.1 241.65,502.66 238,513.69 C231.27,534.06 232.7517,553.0914 235.8017,569.4714" fill="none" id="Workflow-to-Temporal" style="stroke:#181818;stroke-width:1;"/><polygon fill="#181818" points="236.9,575.37,239.1849,565.7899,235.9847,570.4545,231.3201,567.2543,236.9,575.37" style="stroke:#181818;stroke-width:1;"/><text fill="#000000" font-family="sans-serif" font-size="13" lengthAdjust="spacing" textLength="93.7422" x="304.9299" y="526.7569">Run campaign</text><text fill="#000000" font-family="sans-serif" font-size="13" lengthAdjust="spacing" textLength="225.6021" x="239" y="541.8897">(campaignRunId, List&lt;Recipient&gt;)</text></g><!--link Temporal to Settings--><g class="link" data-entity-1="Temporal" data-entity-2="Settings" data-source-line="44" data-uid="lnk25" id="link_Temporal_Settings"><path d="M198.27,612.27 C185.95,619.53 173.96,629.3 167,641.99 C156.55,661.03 158.6645,680.9043 162.9445,697.7743" fill="none" id="Temporal-to-Settings" style="stroke:#181818;stroke-width:1;"/><polygon fill="#181818" points="164.42,703.59,166.0839,693.8827,163.1904,698.7435,158.3296,695.85,164.42,703.59" style="stroke:#181818;stroke-width:1;"/><text fill="#000000" font-family="sans-serif" font-size="13" lengthAdjust="spacing" textLength="107.853" x="168" y="662.5569">Fetch Recipients</text></g><!--link Settings to SegmentSource--><g class="link" data-entity-1="Settings" data-entity-2="SegmentSource" data-source-line="45" data-uid="lnk26" id="link_Settings_SegmentSource"><path d="M163.39,740.57 C157.99,758.09 153.26,784.92 167,802.28 C177.2,815.17 187.75,804.65 203,810.78 C230.85,821.98 255.1242,836.632 275.1242,850.022" fill="none" id="Settings-to-SegmentSource" style="stroke:#181818;stroke-width:1;"/><polygon fill="#181818" points="280.11,853.36,274.8567,845.0292,275.9552,850.5784,270.406,851.6769,280.11,853.36" style="stroke:#181818;stroke-width:1;"/><text fill="#000000" font-family="sans-serif" font-size="13" lengthAdjust="spacing" textLength="130.3936" x="168" y="790.8469">Segment Recipients</text></g><!--link Settings to SettingsSource--><g class="link" data-entity-1="Settings" data-entity-2="SettingsSource" data-source-line="46" data-uid="lnk27" id="link_Settings_SettingsSource"><path d="M102.84,735.63 C83.88,742.59 65.35,753.42 54,770.28 C35.59,797.64 59.013,828.5219 79.953,849.2219" fill="none" id="Settings-to-SettingsSource" style="stroke:#181818;stroke-width:1;"/><polygon fill="#181818" points="84.22,853.44,80.6315,844.2681,80.6641,849.9249,75.0074,849.9575,84.22,853.44" style="stroke:#181818;stroke-width:1;"/><text fill="#000000" font-family="sans-serif" font-size="13" lengthAdjust="spacing" textLength="71.2017" x="55" y="790.8469">Load Rules</text></g><!--link Temporal to Delivery--><g class="link" data-entity-1="Temporal" data-entity-2="Delivery" data-source-line="48" data-uid="lnk28" id="link_Temporal_Delivery"><path d="M310.94,610.9 C417.41,635.35 612.9822,680.2574 717.8622,704.3374" fill="none" id="Temporal-to-Delivery" style="stroke:#181818;stroke-width:1;"/><polygon fill="#181818" points="723.71,705.68,715.8333,699.7675,718.8368,704.5611,714.0431,707.5646,723.71,705.68" style="stroke:#181818;stroke-width:1;"/><text fill="#000000" font-family="sans-serif" font-size="13" lengthAdjust="spacing" textLength="123.5889" x="611.7517" y="655.0569">Send per Recipient</text><text fill="#000000" font-family="sans-serif" font-size="13" lengthAdjust="spacing" textLength="181.0923" x="583" y="670.1897">(campaignRunId, Recipient)</text></g><!--link Delivery to DeliveryStore--><g class="link" data-entity-1="Delivery" data-entity-2="DeliveryStore" data-source-line="50" data-uid="lnk29" id="link_Delivery_DeliveryStore"><path d="M771.07,740.76 C750.6,758.17 717.26,784.69 685,802.28 C650.28,821.22 614.9225,835.164 580.4325,846.854" fill="none" id="Delivery-to-DeliveryStore" style="stroke:#181818;stroke-width:1;"/><polygon fill="#181818" points="574.75,848.78,584.5577,849.6793,579.4854,847.175,581.9897,842.1027,574.75,848.78" style="stroke:#181818;stroke-width:1;"/><text fill="#000000" font-family="sans-serif" font-size="13" lengthAdjust="spacing" textLength="132.3232" x="735" y="790.8469">Save delivery status</text></g><!--link Delivery to Firebase--><g class="link" data-entity-1="Delivery" data-entity-2="Firebase" data-source-line="51" data-uid="lnk30" id="link_Delivery_Firebase"><path d="M858.26,724.39 C960.45,727.34 1149.08,737.24 1207,770.28 C1240.66,789.49 1261.502,824.8464 1272.762,848.1764" fill="none" id="Delivery-to-Firebase" style="stroke:#181818;stroke-width:1;"/><polygon fill="#181818" points="1275.37,853.58,1275.0604,843.736,1273.1967,849.077,1267.8557,847.2133,1275.37,853.58" style="stroke:#181818;stroke-width:1;"/><text fill="#000000" font-family="sans-serif" font-size="13" lengthAdjust="spacing" textLength="47.9248" x="1243" y="790.8469">If PUSH</text></g><!--link Delivery to Email_Provider--><g class="link" data-entity-1="Delivery" data-entity-2="Email_Provider" data-source-line="52" data-uid="lnk32" id="link_Delivery_Email_Provider"><path d="M858.59,724.33 C935.43,727.29 1053.89,737.25 1082,770.28 C1091.22,781.11 1090.75,791.07 1082,802.28 C1072.41,814.56 1062.3,804.62 1048,810.78 C1033.95,816.84 1024.6906,821.6982 1011.5906,829.9282" fill="none" id="Delivery-to-Email_Provider" style="stroke:#181818;stroke-width:1;"/><polygon fill="#181818" points="1006.51,833.12,1016.2587,831.7193,1010.7438,830.4601,1012.003,824.9452,1006.51,833.12" style="stroke:#181818;stroke-width:1;"/><text fill="#000000" font-family="sans-serif" font-size="13" lengthAdjust="spacing" textLength="51.9429" x="1089" y="790.8469">If EMAIL</text></g><!--link Delivery to SMS_Provider--><g class="link" data-entity-1="Delivery" data-entity-2="SMS_Provider" data-source-line="53" data-uid="lnk34" id="link_Delivery_SMS_Provider"><path d="M858.33,727.27 C956.71,734.01 1130.17,748.81 1149,770.28 C1164.17,787.58 1159.3007,806.6033 1147.0407,826.9133" fill="none" id="Delivery-to-SMS_Provider" style="stroke:#181818;stroke-width:1;"/><polygon fill="#181818" points="1143.94,832.05,1152.0155,826.4121,1146.5239,827.7694,1145.1666,822.2778,1143.94,832.05" style="stroke:#181818;stroke-width:1;"/><text fill="#000000" font-family="sans-serif" font-size="13" lengthAdjust="spacing" textLength="40.2632" x="1158" y="790.8469">If SMS</text></g><!--link Firebase to CollectorService--><g class="link" data-entity-1="Firebase" data-entity-2="CollectorService" data-source-line="55" data-uid="lnk35" id="link_Firebase_CollectorService"><path d="M1259.88,853.31 C1239.53,838.92 1208.48,819.57 1178,810.78 C1134.19,798.15 1014.75,820.6 973,802.28 C954.58,794.2 959.06,779.14 941,770.28 C846.48,723.9 809.99,756.81 706,740.28 C700.34,739.38 700.4097,739.437 694.5397,738.407" fill="none" id="Firebase-to-CollectorService" style="stroke:#181818;stroke-width:1;"/><polygon fill="#181818" points="688.63,737.37,696.8033,742.8653,693.5548,738.2341,698.1859,734.9856,688.63,737.37" style="stroke:#181818;stroke-width:1;"/><text fill="#000000" font-family="sans-serif" font-size="13" lengthAdjust="spacing" textLength="99.2393" x="974" y="790.8469">Callback status</text></g><!--link Email_Provider to CollectorService--><g class="link" data-entity-1="Email_Provider" data-entity-2="CollectorService" data-source-line="56" data-uid="lnk36" id="link_Email_Provider_CollectorService"><path d="M926.91,831.98 C909.88,810.47 886.05,785.17 859,770.28 C858.04,769.76 765.982,751.9732 694.752,738.2732" fill="none" id="Email_Provider-to-CollectorService" style="stroke:#181818;stroke-width:1;"/><polygon fill="#181818" points="688.86,737.14,696.9425,742.7679,693.77,738.0844,698.4535,734.9119,688.86,737.14" style="stroke:#181818;stroke-width:1;"/></g><!--link SMS_Provider to CollectorService--><g class="link" data-entity-1="SMS_Provider" data-entity-2="CollectorService" data-source-line="57" data-uid="lnk37" id="link_SMS_Provider_CollectorService"><path d="M1064.98,832.3 C1052.31,823.89 1038.19,815.96 1024,810.78 C990.41,798.52 977.37,815.12 944,802.28 C921.43,793.6 922.35,779.5 900,770.28 C819.34,737.02 791.98,755.12 706,740.28 C700.36,739.31 700.4224,739.3477 694.5624,738.2777" fill="none" id="SMS_Provider-to-CollectorService" style="stroke:#181818;stroke-width:1;"/><polygon fill="#181818" points="688.66,737.2,696.7951,742.7516,693.5787,738.0981,698.2321,734.8817,688.66,737.2" style="stroke:#181818;stroke-width:1;"/></g><!--link CollectorService to DeliveryStore--><g class="link" data-entity-1="CollectorService" data-entity-2="DeliveryStore" data-source-line="59" data-uid="lnk38" id="link_CollectorService_DeliveryStore"><path d="M543.4,733.62 C522.03,740.46 500.94,751.73 488,770.28 C471.88,793.41 478.6777,821.3993 487.7777,843.2993" fill="none" id="CollectorService-to-DeliveryStore" style="stroke:#181818;stroke-width:1;"/><polygon fill="#181818" points="490.08,848.84,490.3204,838.9941,488.1614,844.2227,482.9327,842.0638,490.08,848.84" style="stroke:#181818;stroke-width:1;"/><text fill="#000000" font-family="sans-serif" font-size="13" lengthAdjust="spacing" textLength="147.4941" x="511.2454" y="783.3469">Update delivery status</text><text fill="#000000" font-family="sans-serif" font-size="13" lengthAdjust="spacing" textLength="191.9849" x="489" y="798.4797">(campaignRunId + Recipient)</text></g><!--link Analytics to DeliveryStore--><g class="link" data-entity-1="Analytics" data-entity-2="DeliveryStore" data-source-line="61" data-uid="lnk39" id="link_Analytics_DeliveryStore"><path d="M341.59,740.62 C342.18,758.71 346.06,786.47 363,802.28 C377.56,815.88 388.5,803.39 407,810.78 C430.75,820.27 450.1408,832.4403 468.0608,845.4203" fill="none" id="Analytics-to-DeliveryStore" style="stroke:#181818;stroke-width:1;"/><polygon fill="#181818" points="472.92,848.94,467.9776,840.421,468.8707,846.0069,463.2847,846.9,472.92,848.94" style="stroke:#181818;stroke-width:1;"/><text fill="#000000" font-family="sans-serif" font-size="13" lengthAdjust="spacing" textLength="107.561" x="364" y="783.3469">Analyze delivery</text><text fill="#000000" font-family="sans-serif" font-size="13" lengthAdjust="spacing" textLength="86.7153" x="374.4229" y="798.4797">per Recipient</text></g><!--SRC=[VPLHRjD048RVznIZz0K45QyeGfMIj8L8AOhgLds9X2Rsn5bripRhTK90t00X90w0E05NumZCsl76QwSaKcJFVF_ixEplk7YKEaU36uYpJPvfqZQoUqLWABQeKqMYy4X2AooLlQDFTgHagZTCGym_P5hK4kF7r6IbJYQPoWoShHBtRH4v4vZIE3C9cHfwQt3V8dmpRMQiM7SIwgpui9Osw1ijBh6WSQ-prUfr4fyY_xDiiSOasqcTWZKb2O6nPMemIZPI3m0BgAxWR2RJjHqhXnms38E_lxxzW0TQmWptP0PmXah6j6G8lWZWZzyJ31nMbuh8R1chYjzpk8gAhq7TxtzWWfiS-LZW1ZL7g_BQoeybxTn0-YjumMW-hJkVJtjTPEPnfR9Tq4GJxC9tn9S65LpfLEgQRM9TDY9hUOX5KBW9Tk5BKd9BPX_0JR0BZpIglPLnMDf7dwpDnwt87MR5-xj3aKhM-AEbkkHGn5ZOKnNfRpcj7fbAafN6RxeArv4dnzGJrV63AZJ3pz_mFhDo9MEqCjCmMQFMf0fsX7AkJ0tj-tQubeRSvWRTnDK6fOAvoRQIdufUEhg9Madkf7Rj-Vd5qQqmX8aXjFIgDgStgpWYJi0EP3G-92i9R-2MsCI5vSgSTfYVoX2koSPhi9o6ed5FWtdp3Y6oQAml33jfrmlTtDwMUfe8uN6dzLuU0gUzSg6V1QgNC9E5VNDBiSmbZ-FYkH1UUh9LZnR2vsgmPGFNyS4jJ_Dj1x1Wbc72lIegEYruhxgYEe6SpB5gVqC-nLlnqdQTojok66w9Nme7eh1eoo9KD9PYUBg2-NtqBinNplhGcAUchcv6qrc8iSCw44U4yDKTqtrUdUDGAVSsQbhhh7PA9OAbJXAYjzAfsTpd_5_HcqvtsF0YcFRnd-jKoIhx-LXpeOE3_0S0]--></g></svg>